#!OML:ASF H:\Dans Jumps\Project 1\Capture day 1\Session 1\subject.ASF
:FULLY-SPECIFIED
:DEGREES
529
root 0.692551 17.6853 11.8232 8.4085 -2.56821 -1.56847
lowerback -4.2801 -0.229333 -0.187373
upperback 0.963645 -0.349277 1.61507
thorax 3.40431 -0.194608 1.74414
lowerneck -13.1749 -0.0813695 -1.94871
upperneck 16.7219 0.0447525 1.33134
head 7.30212 0.0193072 0.760014
rclavicle 1.93815e-015 4.77083e-015
rhumerus -27.0711 -13.7641 -80.664
rradius 24.608
rwrist 38.4609
rhand -16.1305 -26.105
rfingers 7.12502
rthumb 10.0743 -55.8439
lclavicle 1.93815e-015 4.77083e-015
lhumerus -26.0061 -0.286705 90.3012
lradius 17.9156
lwrist 1.18527
lhand -24.1476 -6.25824
lfingers 7.12502
lthumb 2.3348 23.7087
rfemur -13.5247 -3.55694 21.2492
rtibia 21.0543
rfoot -14.9177 -1.31606
rtoes 12.4329
lfemur -12.9088 9.33074 -19.2997
ltibia 17.9928
lfoot -10.829 6.70023
ltoes -4.17395
530
root 0.692371 17.685 11.8228 8.39825 -2.56051 -1.56376
lowerback -4.2975 -0.221335 -0.191019
upperback 0.963551 -0.338198 1.6054
thorax 3.41362 -0.189103 1.73699
lowerneck -13.197 -0.097871 -1.93423
upperneck 16.7185 0.0196248 1.33117
head 7.30534 0.00827614 0.755067
rclavicle 3.72721e-015 2.18663e-015
rhumerus -27.1084 -13.8738 -80.6417
rradius 24.584
rwrist 38.4658
rhand -16.138 -26.1082
rfingers 7.12502
rthumb 10.067 -55.8474
lclavicle 3.72721e-015 2.18663e-015
lhumerus -26.0115 -0.0245537 90.1042
lradius 17.7729
lwrist 0.972637
lhand -24.231 -6.34674
lfingers 7.12502
lthumb 2.25422 23.6211
rfemur -13.5182 -3.56573 21.2445
rtibia 21.0604
rfoot -14.9193 -1.32969
rtoes 12.4296
lfemur -12.9009 9.33195 -19.3034
ltibia 17.9928
lfoot -10.829 6.69362
ltoes -4.18737
531
root 0.692168 17.6848 11.8223 8.38767 -2.54928 -1.56432
lowerback -4.31508 -0.212958 -0.18852
upperback 0.964225 -0.326996 1.5967
thorax 3.42379 -0.183428 1.72739
lowerneck -13.2037 -0.1186 -1.92778
upperneck 16.7017 -0.011261 1.33863
head 7.30158 -0.00531355 0.753268
rclavicle 3.97569e-015 1.31198e-014
rhumerus -27.1447 -13.9823 -80.6192
rradius 24.5592
rwrist 38.4674
rhand -16.1246 -26.1195
rfingers 7.12502
rthumb 10.0799 -55.8581
lclavicle 3.97569e-015 1.31198e-014
lhumerus -26.0084 0.245412 89.8992
lradius 17.6328
lwrist 0.74985
lhand -24.2853 -6.40067
lfingers 7.12502
lthumb 2.20186 23.5677
rfemur -13.5095 -3.57505 21.2459
rtibia 21.0644
rfoot -14.9212 -1.34315
rtoes 12.4311
lfemur -12.8931 9.33501 -19.3009
ltibia 17.9932
lfoot -10.8285 6.68125
ltoes -4.20185
532
root 0.692062 17.6847 11.8218 8.37717 -2.53462 -1.56451
lowerback -4.33431 -0.204772 -0.184121
upperback 0.968057 -0.316187 1.58741
thorax 3.43816 -0.177938 1.7161
lowerneck -13.2137 -0.140381 -1.93074
upperneck 16.684 -0.0434629 1.35638
head 7.29814 -0.0191677 0.756249
rclavicle 2.23633e-016 -7.7526e-015
rhumerus -27.1743 -14.0892 -80.5973
rradius 24.5319
rwrist 38.4678
rhand -16.101 -26.1344
rfingers 7.12502
rthumb 10.1028 -55.8719
lclavicle 2.23633e-016 -7.7526e-015
lhumerus -25.9928 0.523138 89.6869
lradius 17.504
lwrist 0.527974
lhand -24.3506 -6.46797
lfingers 7.12502
lthumb 2.13874 23.5011
rfemur -13.4998 -3.59372 21.2469
rtibia 21.0669
rfoot -14.9228 -1.34998
rtoes 12.4307
lfemur -12.885 9.33638 -19.2989
ltibia 17.9935
lfoot -10.8293 6.66659
ltoes -4.21463
533
root 0.69194 17.6846 11.8211 8.3654 -2.51875 -1.56393
lowerback -4.35251 -0.196609 -0.180406
upperback 0.974404 -0.305392 1.57806
thorax 3.45456 -0.172487 1.70514
lowerneck -13.2238 -0.163151 -1.93908
upperneck 16.6646 -0.0765775 1.37795
head 7.29417 -0.0334425 0.761264
rclavicle 6.70898e-016 1.15295e-014
rhumerus -27.1966 -14.1977 -80.5763
rradius 24.5001
rwrist 38.4692
rhand -16.0701 -26.1555
rfingers 7.12502
rthumb 10.1325 -55.8915
lclavicle 6.70898e-016 1.15295e-014
lhumerus -25.9693 0.81479 89.4676
lradius 17.3902
lwrist 0.309983
lhand -24.3588 -6.4554
lfingers 7.12502
lthumb 2.13083 23.5137
rfemur -13.4887 -3.61346 21.2473
rtibia 21.0687
rfoot -14.9244 -1.35707
rtoes 12.4222
lfemur -12.8751 9.33264 -19.2971
ltibia 17.9931
lfoot -10.8291 6.65442
ltoes -4.22848
534
root 0.691774 17.6845 11.8204 8.35252 -2.50141 -1.56254
lowerback -4.36808 -0.188928 -0.177692
upperback 0.982572 -0.295206 1.56916
thorax 3.47139 -0.167373 1.69518
lowerneck -13.2448 -0.183195 -1.95093
upperneck 16.652 -0.105813 1.40364
head 7.29427 -0.0456908 0.768636
rclavicle -2.93207e-015 -6.75868e-015
rhumerus -27.2141 -14.3048 -80.555
rradius 24.4659
rwrist 38.47
rhand -16.0369 -26.1782
rfingers 7.12502
rthumb 10.1646 -55.9127
lclavicle -2.93207e-015 -6.75868e-015
lhumerus -25.9384 1.11388 89.2453
lradius 17.2936
lwrist 0.112801
lhand -24.3707 -6.4186
lfingers 7.12502
lthumb 2.11932 23.5506
rfemur -13.4772 -3.63325 21.247
rtibia 21.0714
rfoot -14.9261 -1.36555
rtoes 12.4137
lfemur -12.8632 9.32497 -19.2954
ltibia 17.9906
lfoot -10.8279 6.64332
ltoes -4.22891
535
root 0.69158 17.6845 11.8196 8.33877 -2.4844 -1.55986
lowerback -4.38361 -0.180908 -0.176073
upperback 0.992212 -0.28452 1.56027
thorax 3.48971 -0.162046 1.68589
lowerneck -13.2676 -0.201821 -1.96206
upperneck 16.6403 -0.132545 1.42574
head 7.29494 -0.0570226 0.77497
rclavicle -1.16786e-014 1.03368e-014
rhumerus -27.2303 -14.4094 -80.5323
rradius 24.4301
rwrist 38.466
rhand -16.0138 -26.1987
rfingers 7.12502
rthumb 10.1869 -55.9321
lclavicle -1.16786e-014 1.03368e-014
lhumerus -25.9037 1.40668 89.0256
lradius 17.2154
lwrist -0.0471129
lhand -24.3783 -6.34722
lfingers 7.12502
lthumb 2.11199 23.6221
rfemur -13.4652 -3.65412 21.2453
rtibia 21.0746
rfoot -14.9281 -1.37282
rtoes 12.3941
lfemur -12.8496 9.31564 -19.2948
ltibia 17.9869
lfoot -10.8264 6.63453
ltoes -4.22655
536
root 0.691306 17.6844 11.8187 8.32493 -2.469 -1.55542
lowerback -4.39854 -0.172764 -0.178849
upperback 1.00226 -0.273478 1.55312
thorax 3.50815 -0.156655 1.6809
lowerneck -13.2931 -0.219775 -1.97669
upperneck 16.6328 -0.157398 1.44686
head 7.29747 -0.0677668 0.781774
rclavicle 9.21864e-015 -9.93923e-015
rhumerus -27.2499 -14.5065 -80.507
rradius 24.3993
rwrist 38.4563
rhand -15.9993 -26.2179
rfingers 7.12502
rthumb 10.2008 -55.9506
lclavicle 9.21864e-015 -9.93923e-015
lhumerus -25.8699 1.70844 88.8075
lradius 17.153
lwrist -0.185922
lhand -24.3742 -6.26586
lfingers 7.12502
lthumb 2.11599 23.7034
rfemur -13.4533 -3.6724 21.2418
rtibia 21.0777
rfoot -14.929 -1.38136
rtoes 12.3757
lfemur -12.8357 9.30432 -19.2959
ltibia 17.9831
lfoot -10.8246 6.63017
ltoes -4.21782
537
root 0.690963 17.6844 11.8179 8.31191 -2.45467 -1.55469
lowerback -4.41333 -0.16384 -0.179437
upperback 1.01132 -0.261584 1.54831
thorax 3.52546 -0.15081 1.67717
lowerneck -13.3183 -0.235168 -1.99011
upperneck 16.6275 -0.178098 1.46311
head 7.30058 -0.0769017 0.787211
rclavicle -1.88845e-015 -1.45113e-014
rhumerus -27.2718 -14.606 -80.4774
rradius 24.3667
rwrist 38.4493
rhand -15.9977 -26.2343
rfingers 7.12502
rthumb 10.2024 -55.9669
lclavicle -1.88845e-015 -1.45113e-014
lhumerus -25.8358 2.0067 88.5933
lradius 17.0954
lwrist -0.303051
lhand -24.399 -6.2352
lfingers 7.12502
lthumb 2.09204 23.7343
rfemur -13.4418 -3.68748 21.2423
rtibia 21.0803
rfoot -14.9294 -1.38909
rtoes 12.3715
lfemur -12.8233 9.29443 -19.2929
ltibia 17.9803
lfoot -10.8217 6.6269
ltoes -4.20703
